<?xml version="1.0" standalone="no"?>
<!DOCTYPE svg PUBLIC "-//W3C//DTD SVG 20010904//EN"
 "http://www.w3.org/TR/2001/REC-SVG-20010904/DTD/svg10.dtd">
<svg version="1.0" xmlns="http://www.w3.org/2000/svg"
 width="414.000000pt" height="896.000000pt" viewBox="0 0 414.000000 896.000000"
 preserveAspectRatio="xMidYMid meet">

<g transform="translate(0.000000,896.000000) scale(0.100000,-0.100000)"
fill="#000000" stroke="none">
<path d="M1836 8913 c-54 -443 -11 -610 194 -748 99 -67 188 -96 316 -102 185
-10 351 29 729 172 121 46 267 98 325 116 102 33 109 34 270 33 132 -1 195 -6
312 -27 81 -15 150 -27 153 -27 3 0 5 142 5 315 l0 315 -1149 0 -1149 0 -6
-47z"/>
<path d="M1653 7743 c37 -2 96 -2 130 0 34 2 4 3 -68 3 -71 0 -99 -1 -62 -3z"/>
<path d="M2030 7734 c82 -8 200 -8 200 -1 0 4 -53 6 -117 5 -65 -1 -102 -3
-83 -4z"/>
<path d="M2222 7685 c0 -16 2 -22 5 -12 2 9 2 23 0 30 -3 6 -5 -1 -5 -18z"/>
<path d="M2538 7703 c83 -2 221 -2 305 0 83 1 15 3 -153 3 -168 0 -236 -2
-152 -3z"/>
<path d="M1605 7690 c3 -5 8 -10 11 -10 2 0 4 5 4 10 0 6 -5 10 -11 10 -5 0
-7 -4 -4 -10z"/>
<path d="M1685 7690 c3 -5 8 -10 11 -10 2 0 4 5 4 10 0 6 -5 10 -11 10 -5 0
-7 -4 -4 -10z"/>
<path d="M1541 7674 c0 -11 3 -14 6 -6 3 7 2 16 -1 19 -3 4 -6 -2 -5 -13z"/>
<path d="M2982 7630 c0 -19 2 -27 5 -17 2 9 2 25 0 35 -3 9 -5 1 -5 -18z"/>
<path d="M1790 7643 c156 -3 216 -7 222 -16 6 -9 8 -9 8 0 0 8 27 13 83 16 45
1 -55 3 -223 3 -205 0 -235 -2 -90 -3z"/>
<path d="M2212 7625 c0 -16 2 -22 5 -12 2 9 2 23 0 30 -3 6 -5 -1 -5 -18z"/>
<path d="M1584 7599 c-3 -6 -1 -16 6 -22 10 -9 11 -9 5 2 -4 8 -2 17 6 22 9 6
10 9 2 9 -6 0 -15 -5 -19 -11z"/>
<path d="M1693 7603 c4 -3 1 -13 -6 -22 -11 -14 -10 -14 5 -2 16 12 16 31 1
31 -4 0 -3 -3 0 -7z"/>
<path d="M1995 7565 c-3 -26 -4 -49 -2 -51 3 -3 8 16 12 41 3 26 4 49 2 51 -3
3 -8 -16 -12 -41z"/>
<path d="M2045 7601 c-3 -5 -1 -12 5 -16 5 -3 10 1 10 9 0 18 -6 21 -15 7z"/>
<path d="M1633 7593 c9 -2 23 -2 30 0 6 3 -1 5 -18 5 -16 0 -22 -2 -12 -5z"/>
<path d="M2103 7593 c9 -2 23 -2 30 0 6 3 -1 5 -18 5 -16 0 -22 -2 -12 -5z"/>
<path d="M2195 7535 c-3 -31 -5 -59 -2 -61 3 -3 8 20 12 51 3 31 5 59 2 61 -3
3 -8 -20 -12 -51z"/>
<path d="M2969 7565 l-4 -30 -300 -5 -300 -5 296 -3 c320 -2 325 -1 317 50 -4
20 -5 19 -9 -7z"/>
<path d="M2030 7541 c0 -6 5 -13 10 -16 6 -3 10 1 10 9 0 9 -4 16 -10 16 -5 0
-10 -4 -10 -9z"/>
<path d="M2093 7533 c9 -2 23 -2 30 0 6 3 -1 5 -18 5 -16 0 -22 -2 -12 -5z"/>
<path d="M1613 7513 c26 -2 68 -2 95 0 26 2 4 3 -48 3 -52 0 -74 -1 -47 -3z"/>
<path d="M718 7477 c-16 -13 -28 -28 -28 -35 0 -7 -4 -12 -9 -12 -4 0 -11 -19
-14 -41 -6 -48 14 -89 44 -89 17 0 18 3 7 21 -11 18 -11 23 1 27 8 2 31 20 51
39 21 18 42 33 47 31 17 -4 53 14 53 27 0 16 -49 40 -95 49 -22 4 -37 0 -57
-17z"/>
<path d="M1982 7475 c0 -16 2 -22 5 -12 2 9 2 23 0 30 -3 6 -5 -1 -5 -18z"/>
<path d="M2026 7481 c-4 -5 -2 -12 3 -15 5 -4 12 -2 15 3 4 5 2 12 -3 15 -5 4
-12 2 -15 -3z"/>
<path d="M1727 7473 c18 -2 50 -2 70 0 21 2 7 4 -32 4 -38 0 -55 -2 -38 -4z"/>
<path d="M2083 7473 c9 -2 23 -2 30 0 6 3 -1 5 -18 5 -16 0 -22 -2 -12 -5z"/>
<path d="M1501 7454 c0 -11 3 -14 6 -6 3 7 2 16 -1 19 -3 4 -6 -2 -5 -13z"/>
<path d="M2182 7435 c0 -16 2 -22 5 -12 2 9 2 23 0 30 -3 6 -5 -1 -5 -18z"/>
<path d="M1972 7415 c0 -16 2 -22 5 -12 2 9 2 23 0 30 -3 6 -5 -1 -5 -18z"/>
<path d="M1648 7413 c18 -2 45 -2 60 0 15 2 0 4 -33 4 -33 0 -45 -2 -27 -4z"/>
<path d="M2020 7410 c0 -5 5 -10 10 -10 6 0 10 5 10 10 0 6 -4 10 -10 10 -5 0
-10 -4 -10 -10z"/>
<path d="M2470 7410 c0 -5 5 -10 11 -10 5 0 7 5 4 10 -3 6 -8 10 -11 10 -2 0
-4 -4 -4 -10z"/>
<path d="M1491 7394 c0 -11 3 -14 6 -6 3 7 2 16 -1 19 -3 4 -6 -2 -5 -13z"/>
<path d="M2073 7403 c9 -2 23 -2 30 0 6 3 -1 5 -18 5 -16 0 -22 -2 -12 -5z"/>
<path d="M2172 7375 c0 -16 2 -22 5 -12 2 9 2 23 0 30 -3 6 -5 -1 -5 -18z"/>
<path d="M1955 7335 c-3 -26 -4 -49 -2 -51 3 -3 8 16 12 41 3 26 4 49 2 51 -3
3 -8 -16 -12 -41z"/>
<path d="M1658 7363 c23 -2 59 -2 80 0 20 2 1 4 -43 4 -44 0 -61 -2 -37 -4z"/>
<path d="M1481 7344 c0 -11 3 -14 6 -6 3 7 2 16 -1 19 -3 4 -6 -2 -5 -13z"/>
<path d="M2006 7351 c-4 -5 -2 -12 3 -15 5 -4 12 -2 15 3 4 5 2 12 -3 15 -5 4
-12 2 -15 -3z"/>
<path d="M3298 7353 c7 -3 16 -2 19 1 4 3 -2 6 -13 5 -11 0 -14 -3 -6 -6z"/>
<path d="M2063 7343 c9 -2 23 -2 30 0 6 3 -1 5 -18 5 -16 0 -22 -2 -12 -5z"/>
<path d="M2162 7315 c0 -16 2 -22 5 -12 2 9 2 23 0 30 -3 6 -5 -1 -5 -18z"/>
<path d="M1628 7313 c23 -2 61 -2 85 0 23 2 4 4 -43 4 -47 0 -66 -2 -42 -4z"/>
<path d="M1808 7313 c12 -2 32 -2 45 0 12 2 2 4 -23 4 -25 0 -35 -2 -22 -4z"/>
<path d="M3082 7223 c-65 -98 -80 -123 -65 -108 16 16 134 195 129 195 -3 0
-32 -39 -64 -87z"/>
<path d="M1471 7284 c0 -11 3 -14 6 -6 3 7 2 16 -1 19 -3 4 -6 -2 -5 -13z"/>
<path d="M1990 7290 c0 -5 5 -10 10 -10 6 0 10 5 10 10 0 6 -4 10 -10 10 -5 0
-10 -4 -10 -10z"/>
<path d="M2053 7283 c9 -2 23 -2 30 0 6 3 -1 5 -18 5 -16 0 -22 -2 -12 -5z"/>
<path d="M3281 7274 c0 -11 3 -14 6 -6 3 7 2 16 -1 19 -3 4 -6 -2 -5 -13z"/>
<path d="M2152 7255 c0 -16 2 -22 5 -12 2 9 2 23 0 30 -3 6 -5 -1 -5 -18z"/>
<path d="M1598 7263 c39 -2 105 -2 145 0 39 1 7 3 -73 3 -80 0 -112 -2 -72 -3z"/>
<path d="M1942 7245 c0 -16 2 -22 5 -12 2 9 2 23 0 30 -3 6 -5 -1 -5 -18z"/>
<path d="M2833 7218 c-65 -110 -75 -128 -70 -128 3 0 26 36 52 81 34 57 50 77
56 67 6 -9 9 -7 9 10 0 35 -13 26 -47 -30z"/>
<path d="M3271 7214 c0 -11 3 -14 6 -6 3 7 2 16 -1 19 -3 4 -6 -2 -5 -13z"/>
<path d="M2142 7195 c0 -16 2 -22 5 -12 2 9 2 23 0 30 -3 6 -5 -1 -5 -18z"/>
<path d="M2882 7200 c0 -14 2 -19 5 -12 2 6 2 18 0 25 -3 6 -5 1 -5 -13z"/>
<path d="M1512 7201 c-11 -6 -10 -10 0 -19 11 -8 14 -7 14 9 0 10 0 19 -1 19
0 0 -6 -4 -13 -9z"/>
<path d="M1610 7195 c-7 -9 -11 -17 -9 -20 3 -2 10 5 17 15 14 24 10 26 -8 5z"/>
<path d="M1644 7189 c0 -13 3 -15 13 -7 7 6 13 12 13 13 0 2 -6 5 -13 8 -7 3
-13 -3 -13 -14z"/>
<path d="M1932 7185 c0 -16 2 -22 5 -12 2 9 2 23 0 30 -3 6 -5 -1 -5 -18z"/>
<path d="M1553 7193 c9 -2 23 -2 30 0 6 3 -1 5 -18 5 -16 0 -22 -2 -12 -5z"/>
<path d="M2892 7150 c0 -14 4 -38 8 -55 7 -27 8 -27 8 -5 0 14 -4 39 -8 55 -7
27 -8 27 -8 5z"/>
<path d="M2121 7073 l-14 -93 -118 0 c-145 0 -138 7 -169 -175 -12 -71 -24
-141 -27 -155 -3 -17 -2 -21 4 -12 8 10 85 12 361 10 194 -2 352 -1 352 2 0 3
12 72 27 154 l27 149 -22 17 -21 18 32 45 c18 25 36 47 41 48 5 2 17 -18 27
-46 10 -27 17 -43 17 -35 0 8 -7 38 -17 65 l-18 50 -49 -67 -49 -68 -192 0
c-219 0 -201 -9 -182 94 5 31 9 65 7 74 -2 9 -10 -25 -17 -75z m-136 -165
c-11 -6 -27 -16 -35 -22 -9 -6 -5 -1 8 12 13 12 28 22 35 22 7 0 3 -6 -8 -12z
m52 -70 c-3 -8 -6 -5 -6 6 -1 11 2 17 5 13 3 -3 4 -12 1 -19z m-2 -48 c10 -11
16 -20 13 -20 -3 0 -13 9 -23 20 -10 11 -16 20 -13 20 3 0 13 -9 23 -20z m288
13 c-24 -2 -62 -2 -85 0 -24 2 -5 4 42 4 47 0 66 -2 43 -4z m-221 -37 c10 6
11 4 0 -7 -10 -11 -15 -10 -30 6 -15 17 -15 18 0 6 9 -7 23 -9 30 -5z m-157
-26 l20 -25 -22 19 c-13 11 -23 24 -23 29 0 6 1 8 3 6 1 -2 11 -15 22 -29z
m116 -13 c-10 -9 -11 -8 -5 6 3 10 9 15 12 12 3 -3 0 -11 -7 -18z"/>
<path d="M1915 7105 c-3 -26 -4 -49 -2 -51 3 -3 8 16 12 41 3 26 4 49 2 51 -3
3 -8 -16 -12 -41z"/>
<path d="M963 7113 c37 -2 96 -2 130 0 34 2 4 3 -68 3 -71 0 -99 -1 -62 -3z"/>
<path d="M881 7094 c0 -11 3 -14 6 -6 3 7 2 16 -1 19 -3 4 -6 -2 -5 -13z"/>
<path d="M1633 7103 c31 -2 83 -2 115 0 31 2 5 3 -58 3 -63 0 -89 -1 -57 -3z"/>
<path d="M1058 7093 c6 -2 18 -2 25 0 6 3 1 5 -13 5 -14 0 -19 -2 -12 -5z"/>
<path d="M2970 7050 c-18 -27 -36 -47 -41 -44 -5 3 -9 -2 -9 -10 0 -25 13 -19
36 17 11 17 29 44 38 60 10 15 16 27 13 27 -3 0 -19 -22 -37 -50z"/>
<path d="M1230 7079 c-14 -6 -35 -8 -46 -6 -17 3 -28 -7 -52 -48 -29 -48 -30
-55 -20 -89 7 -21 24 -48 40 -61 15 -13 28 -30 28 -37 0 -7 9 5 21 26 19 35
19 40 5 48 -9 5 -16 14 -16 19 0 6 5 7 10 4 21 -13 47 5 43 29 -4 18 2 25 25
35 39 16 60 54 42 76 -14 17 -43 18 -80 4z"/>
<path d="M3251 7074 c0 -11 3 -14 6 -6 3 7 2 16 -1 19 -3 4 -6 -2 -5 -13z"/>
<path d="M1431 7064 c0 -11 3 -14 6 -6 3 7 2 16 -1 19 -3 4 -6 -2 -5 -13z"/>
<path d="M2740 7060 c-6 -11 -8 -20 -6 -20 3 0 10 9 16 20 6 11 8 20 6 20 -3
0 -10 -9 -16 -20z"/>
<path d="M872 7045 c0 -16 2 -22 5 -12 2 9 2 23 0 30 -3 6 -5 -1 -5 -18z"/>
<path d="M1568 7063 c23 -2 61 -2 85 0 23 2 4 4 -43 4 -47 0 -66 -2 -42 -4z"/>
<path d="M1748 7063 c12 -2 32 -2 45 0 12 2 2 4 -23 4 -25 0 -35 -2 -22 -4z"/>
<path d="M2912 7040 c0 -14 2 -19 5 -12 2 6 2 18 0 25 -3 6 -5 1 -5 -13z"/>
<path d="M682 7003 c-2 -49 0 -53 21 -52 16 1 17 3 5 6 -12 3 -18 18 -21 51
l-3 47 -2 -52z"/>
<path d="M1042 7018 c7 -15 15 -23 17 -17 2 6 -4 18 -13 27 -15 15 -15 15 -4
-10z"/>
<path d="M1902 7015 c0 -16 2 -22 5 -12 2 9 2 23 0 30 -3 6 -5 -1 -5 -18z"/>
<path d="M3359 7033 c-44 -7 -63 -37 -67 -109 -5 -77 6 -94 57 -94 l36 1 -31
13 c-34 15 -44 32 -44 77 0 19 8 34 25 45 24 16 26 15 45 -9 11 -13 35 -32 55
-41 39 -19 46 -41 15 -51 -34 -11 -24 -35 15 -35 42 0 51 22 40 107 -11 90
-44 112 -146 96z"/>
<path d="M1638 7023 c39 -2 105 -2 145 0 39 1 7 3 -73 3 -80 0 -112 -2 -72 -3z"/>
<path d="M2710 7010 c-6 -11 -8 -20 -6 -20 3 0 10 9 16 20 6 11 8 20 6 20 -3
0 -10 -9 -16 -20z"/>
<path d="M3241 7014 c0 -11 3 -14 6 -6 3 7 2 16 -1 19 -3 4 -6 -2 -5 -13z"/>
<path d="M1421 7004 c0 -11 3 -14 6 -6 3 7 2 16 -1 19 -3 4 -6 -2 -5 -13z"/>
<path d="M1295 6980 c-4 -12 -4 -24 -1 -27 3 -4 6 1 6 10 0 10 5 17 11 17 7 0
9 -10 7 -25 -3 -13 -1 -22 3 -19 14 8 10 40 -5 53 -11 10 -16 8 -21 -9z"/>
<path d="M1618 6983 c29 -2 74 -2 100 0 26 2 2 3 -53 3 -55 0 -76 -1 -47 -3z"/>
<path d="M740 6970 c-8 -5 -10 -10 -5 -10 6 0 17 5 25 10 8 5 11 10 5 10 -5 0
-17 -5 -25 -10z"/>
<path d="M1025 6970 c-16 -7 -17 -9 -3 -9 9 -1 20 4 23 9 7 11 7 11 -20 0z"/>
<path d="M2644 6960 c3 -14 6 -28 6 -32 0 -20 21 -5 35 25 14 28 14 30 0 13
-8 -11 -15 -25 -16 -30 0 -6 -7 3 -15 19 -13 26 -14 27 -10 5z"/>
<path d="M1411 6954 c0 -11 3 -14 6 -6 3 7 2 16 -1 19 -3 4 -6 -2 -5 -13z"/>
<path d="M3231 6944 c0 -11 3 -14 6 -6 3 7 2 16 -1 19 -3 4 -6 -2 -5 -13z"/>
<path d="M854 6900 c1 -11 14 -15 44 -16 l42 -1 -39 4 c-22 2 -42 9 -44 16 -2
7 -3 5 -3 -3z"/>
<path d="M1401 6894 c0 -11 3 -14 6 -6 3 7 2 16 -1 19 -3 4 -6 -2 -5 -13z"/>
<path d="M978 6893 c12 -2 32 -2 45 0 12 2 2 4 -23 4 -25 0 -35 -2 -22 -4z"/>
<path d="M753 6847 c-61 -36 -113 -73 -78 -55 35 18 155 91 155 94 0 7 -2 5
-77 -39z"/>
<path d="M1276 6875 c-11 -8 -15 -15 -9 -15 6 0 16 7 23 15 16 19 11 19 -14 0z"/>
<path d="M3211 6804 c0 -11 3 -14 6 -6 3 7 2 16 -1 19 -3 4 -6 -2 -5 -13z"/>
<path d="M3201 6744 c0 -11 3 -14 6 -6 3 7 2 16 -1 19 -3 4 -6 -2 -5 -13z"/>
<path d="M988 6743 c6 -2 18 -2 25 0 6 3 1 5 -13 5 -14 0 -19 -2 -12 -5z"/>
<path d="M1168 6733 c18 -2 45 -2 60 0 15 2 0 4 -33 4 -33 0 -45 -2 -27 -4z"/>
<path d="M1284 6686 c12 -23 22 -39 24 -35 4 9 -24 66 -36 73 -5 3 1 -14 12
-38z"/>
<path d="M3198 6693 c7 -3 16 -2 19 1 4 3 -2 6 -13 5 -11 0 -14 -3 -6 -6z"/>
<path d="M920 6671 c0 -11 -6 -22 -12 -24 -8 -3 -6 -6 5 -6 12 -1 17 7 17 24
0 14 -2 25 -5 25 -3 0 -5 -9 -5 -19z"/>
<path d="M638 6643 c7 -3 16 -2 19 1 4 3 -2 6 -13 5 -11 0 -14 -3 -6 -6z"/>
<path d="M693 6633 c9 -2 23 -2 30 0 6 3 -1 5 -18 5 -16 0 -22 -2 -12 -5z"/>
<path d="M843 6633 c9 -2 25 -2 35 0 9 3 1 5 -18 5 -19 0 -27 -2 -17 -5z"/>
<path d="M1312 6610 c0 -14 2 -19 5 -12 2 6 2 18 0 25 -3 6 -5 1 -5 -13z"/>
<path d="M2127 6623 c-3 -5 5 -8 18 -8 13 0 21 3 18 8 -2 4 -10 7 -18 7 -8 0
-16 -3 -18 -7z"/>
<path d="M601 6594 c0 -11 3 -14 6 -6 3 7 2 16 -1 19 -3 4 -6 -2 -5 -13z"/>
<path d="M1212 6590 c0 -14 2 -19 5 -12 2 6 2 18 0 25 -3 6 -5 1 -5 -13z"/>
<path d="M3010 6590 c0 -5 7 -7 15 -4 8 4 15 8 15 10 0 2 -7 4 -15 4 -8 0 -15
-4 -15 -10z"/>
<path d="M1323 6540 c0 -25 2 -35 4 -22 2 12 2 32 0 45 -2 12 -4 2 -4 -23z"/>
<path d="M3193 6570 c-13 -5 -23 -15 -22 -22 0 -10 2 -10 6 0 2 6 11 12 18 12
8 0 17 5 20 10 7 12 7 12 -22 0z"/>
<path d="M3239 6558 c10 -14 26 -18 65 -16 l51 2 -50 3 c-27 3 -56 10 -65 16
-13 11 -13 10 -1 -5z"/>
<path d="M2570 6550 l45 -6 -45 -5 -45 -6 48 -1 c36 -2 47 2 47 13 0 11 -11
15 -47 13 l-48 -1 45 -7z"/>
<path d="M3068 6553 c12 -2 30 -2 40 0 9 3 -1 5 -23 4 -22 0 -30 -2 -17 -4z"/>
<path d="M3138 6553 c7 -3 16 -2 19 1 4 3 -2 6 -13 5 -11 0 -14 -3 -6 -6z"/>
<path d="M2042 6544 c9 -9 198 -10 198 -1 0 4 -46 7 -102 7 -56 0 -99 -3 -96
-6z"/>
<path d="M2524 6508 c-3 -4 21 -7 53 -7 60 1 56 5 -10 11 -21 2 -40 0 -43 -4z"/>
<path d="M1744 6502 c3 -5 0 -13 -6 -15 -9 -4 -10 -6 -1 -6 17 -1 25 16 12 25
-7 4 -9 3 -5 -4z"/>
<path d="M1641 6475 c0 -5 6 -21 14 -35 8 -14 14 -20 14 -15 0 6 -6 21 -14 35
-8 14 -14 21 -14 15z"/>
<path d="M1758 6463 c7 -3 16 -2 19 1 4 3 -2 6 -13 5 -11 0 -14 -3 -6 -6z"/>
<path d="M1737 6449 c7 -7 15 -10 18 -7 3 3 -2 9 -12 12 -14 6 -15 5 -6 -5z"/>
<path d="M1796 6448 c2 -3 -3 -8 -13 -10 -9 -2 146 -2 345 0 247 2 362 0 362
-8 0 -7 -124 -10 -386 -10 -277 0 -383 3 -378 11 4 8 0 8 -15 0 -11 -7 -21
-14 -21 -16 0 -3 219 -4 488 -3 268 1 451 4 408 5 -54 3 -83 8 -90 18 -9 12
-70 15 -358 17 -190 2 -344 0 -342 -4z"/>
<path d="M3260 6443 c0 -5 33 -7 72 -5 132 5 145 9 36 10 -60 1 -108 -1 -108
-5z"/>
<path d="M3512 6390 c0 -14 2 -19 5 -12 2 6 2 18 0 25 -3 6 -5 1 -5 -13z"/>
<path d="M591 6374 c0 -11 3 -14 6 -6 3 7 2 16 -1 19 -3 4 -6 -2 -5 -13z"/>
<path d="M1252 6370 c0 -14 2 -19 5 -12 2 6 2 18 0 25 -3 6 -5 1 -5 -13z"/>
<path d="M821 6364 c0 -11 3 -14 6 -6 3 7 2 16 -1 19 -3 4 -6 -2 -5 -13z"/>
<path d="M1333 6310 c0 -30 2 -43 4 -27 2 15 2 39 0 55 -2 15 -4 2 -4 -28z"/>
<path d="M1261 6314 c0 -11 3 -14 6 -6 3 7 2 16 -1 19 -3 4 -6 -2 -5 -13z"/>
<path d="M2834 6314 c-18 -15 -18 -15 3 -5 29 15 39 14 57 -5 19 -18 22 -95 5
-126 -8 -14 -8 -23 0 -31 18 -18 13 -52 -11 -83 -19 -23 -23 -41 -23 -96 0
-80 16 -86 22 -8 2 39 1 51 -7 40 -8 -12 -10 -9 -10 12 0 18 9 33 29 47 27 19
28 23 19 58 -5 21 -9 43 -8 48 12 115 12 123 -9 144 -25 25 -41 26 -67 5z"/>
<path d="M811 6294 c0 -11 3 -14 6 -6 3 7 2 16 -1 19 -3 4 -6 -2 -5 -13z"/>
<path d="M2802 6240 c0 -14 2 -19 5 -12 2 6 2 18 0 25 -3 6 -5 1 -5 -13z"/>
<path d="M1333 6210 c0 -25 2 -35 4 -22 2 12 2 32 0 45 -2 12 -4 2 -4 -23z"/>
<path d="M801 6224 c0 -11 3 -14 6 -6 3 7 2 16 -1 19 -3 4 -6 -2 -5 -13z"/>
<path d="M1282 6210 c0 -14 2 -19 5 -12 2 6 2 18 0 25 -3 6 -5 1 -5 -13z"/>
<path d="M3025 6223 c30 -8 45 -23 46 -47 1 -18 2 -18 6 -3 6 24 -24 57 -51
56 -20 -1 -20 -2 -1 -6z"/>
<path d="M991 6174 c-1 -21 5 -34 15 -38 13 -5 14 -3 6 6 -5 7 -12 24 -15 38
-4 22 -4 21 -6 -6z"/>
<path d="M791 6154 c0 -11 3 -14 6 -6 3 7 2 16 -1 19 -3 4 -6 -2 -5 -13z"/>
<path d="M1496 6133 c-6 -14 -5 -15 5 -6 7 7 10 15 7 18 -3 3 -9 -2 -12 -12z"/>
<path d="M3071 6137 c0 -10 -7 -30 -15 -45 -11 -22 -11 -33 0 -62 7 -19 13
-28 13 -20 0 8 -4 24 -8 35 -5 12 -3 31 6 48 8 16 12 36 10 45 -4 15 -5 15 -6
-1z"/>
<path d="M2635 6130 c-3 -6 1 -7 9 -4 18 7 21 14 7 14 -6 0 -13 -4 -16 -10z"/>
<path d="M1038 6123 c7 -3 16 -2 19 1 4 3 -2 6 -13 5 -11 0 -14 -3 -6 -6z"/>
<path d="M1263 6123 l37 -4 0 -240 c0 -131 3 -239 8 -239 4 0 7 110 7 245 l0
245 -45 -2 c-44 -1 -44 -1 -7 -5z"/>
<path d="M2718 6095 c5 -11 12 -27 15 -35 5 -13 6 -13 6 1 1 8 -6 24 -15 35
-15 19 -15 19 -6 -1z"/>
<path d="M781 6084 c0 -11 3 -14 6 -6 3 7 2 16 -1 19 -3 4 -6 -2 -5 -13z"/>
<path d="M2741 6024 c-1 -13 8 -25 24 -32 21 -10 25 -18 25 -56 0 -31 5 -46
16 -50 23 -9 24 -8 23 12 0 10 -3 12 -6 4 -8 -21 -23 -2 -23 31 1 30 1 31 15
13 28 -37 15 -6 -14 34 -18 25 -31 35 -34 28 -3 -8 -9 -3 -15 12 -10 23 -11
23 -11 4z"/>
<path d="M771 6014 c0 -11 3 -14 6 -6 3 7 2 16 -1 19 -3 4 -6 -2 -5 -13z"/>
<path d="M2630 6026 c0 -2 8 -10 18 -17 15 -13 16 -12 3 4 -13 16 -21 21 -21
13z"/>
<path d="M971 6004 c0 -11 3 -14 6 -6 3 7 2 16 -1 19 -3 4 -6 -2 -5 -13z"/>
<path d="M3026 5951 l-30 -36 34 32 c19 18 32 34 29 36 -2 2 -17 -12 -33 -32z"/>
<path d="M761 5953 c0 -4 4 -17 9 -28 8 -19 9 -19 9 2 1 12 -3 25 -9 28 -5 3
-10 3 -9 -2z"/>
<path d="M1474 5899 c19 -180 19 -225 1 -263 -10 -20 -14 -40 -10 -44 3 -4 45
-9 91 -11 68 -2 84 0 84 11 0 9 -22 21 -56 32 -30 10 -58 24 -61 33 -10 26 14
107 51 169 19 32 38 71 41 85 6 25 4 27 -37 33 -24 4 -58 9 -77 13 l-34 6 7
-64z"/>
<path d="M2640 5922 c0 -16 41 -42 65 -41 14 0 11 3 -10 10 -16 5 -36 16 -42
26 -7 9 -13 12 -13 5z"/>
<path d="M2951 5890 c-6 -18 -6 -28 -1 -25 6 4 10 12 10 20 0 8 8 19 18 24 15
9 15 10 0 11 -9 0 -21 -13 -27 -30z"/>
<path d="M752 5860 c0 -14 2 -19 5 -12 2 6 2 18 0 25 -3 6 -5 1 -5 -13z"/>
<path d="M3232 5835 c0 -16 2 -22 5 -12 2 9 2 23 0 30 -3 6 -5 -1 -5 -18z"/>
<path d="M2919 5833 c-13 -16 -12 -17 4 -4 9 7 17 15 17 17 0 8 -8 3 -21 -13z"/>
<path d="M2818 5803 c12 -2 32 -2 45 0 12 2 2 4 -23 4 -25 0 -35 -2 -22 -4z"/>
<path d="M941 5774 c0 -11 3 -14 6 -6 3 7 2 16 -1 19 -3 4 -6 -2 -5 -13z"/>
<path d="M2710 5781 c0 -6 4 -13 10 -16 6 -3 7 1 4 9 -7 18 -14 21 -14 7z"/>
<path d="M2951 5774 c0 -11 3 -14 6 -6 3 7 2 16 -1 19 -3 4 -6 -2 -5 -13z"/>
<path d="M601 5704 c0 -11 3 -14 6 -6 3 7 2 16 -1 19 -3 4 -6 -2 -5 -13z"/>
<path d="M922 5701 c-11 -7 -11 -9 2 -14 10 -4 16 -1 16 8 0 17 -1 17 -18 6z"/>
<path d="M790 5690 c0 -6 7 -10 15 -10 8 0 15 2 15 4 0 2 -7 6 -15 10 -8 3
-15 1 -15 -4z"/>
<path d="M2931 5684 c0 -11 3 -14 6 -6 3 7 2 16 -1 19 -3 4 -6 -2 -5 -13z"/>
<path d="M791 5647 l-1 -29 -33 20 c-24 16 -36 18 -51 10 -10 -6 -33 -8 -51
-5 -32 5 -45 -4 -45 -33 0 -13 191 -33 203 -21 7 7 41 8 97 4 52 -3 89 -2 93
4 3 5 -12 23 -34 41 -34 25 -45 29 -66 21 -35 -13 -100 -11 -106 4 -3 6 -6 -1
-6 -16z"/>
<path d="M1348 5653 c7 -3 16 -2 19 1 4 3 -2 6 -13 5 -11 0 -14 -3 -6 -6z"/>
<path d="M3333 5653 c9 -2 25 -2 35 0 9 3 1 5 -18 5 -19 0 -27 -2 -17 -5z"/>
<path d="M1378 5628 c6 -6 18 -8 28 -6 14 3 12 5 -9 10 -19 3 -25 2 -19 -4z"/>
<path d="M1261 5614 c0 -11 3 -14 6 -6 3 7 2 16 -1 19 -3 4 -6 -2 -5 -13z"/>
<path d="M2751 5604 c0 -11 3 -14 6 -6 3 7 2 16 -1 19 -3 4 -6 -2 -5 -13z"/>
<path d="M1323 5583 c15 -2 37 -2 50 0 12 2 0 4 -28 4 -27 0 -38 -2 -22 -4z"/>
<path d="M2760 5568 c0 -5 35 -7 78 -7 78 2 69 6 -26 11 -28 2 -52 0 -52 -4z"/>
<path d="M3330 5546 c0 -2 7 -6 15 -10 8 -3 15 -1 15 4 0 6 -7 10 -15 10 -8 0
-15 -2 -15 -4z"/>
<path d="M3379 5523 l-24 -28 30 25 c17 14 32 26 34 28 2 1 0 2 -6 2 -5 0 -20
-12 -34 -27z"/>
<path d="M3477 5530 c3 -11 7 -20 9 -20 2 0 4 9 4 20 0 11 -4 20 -9 20 -5 0
-7 -9 -4 -20z"/>
<path d="M3438 5533 c7 -3 16 -2 19 1 4 3 -2 6 -13 5 -11 0 -14 -3 -6 -6z"/>
<path d="M3234 5508 l-19 -23 23 19 c21 18 27 26 19 26 -2 0 -12 -10 -23 -22z"/>
<path d="M1817 4163 c-14 -13 -6 -33 13 -33 13 0 20 7 20 20 0 19 -20 27 -33
13z"/>
<path d="M1170 4020 l0 -130 60 0 c47 0 60 3 60 15 0 11 -12 15 -45 15 l-45 0
0 115 c0 96 -3 115 -15 115 -13 0 -15 -21 -15 -130z"/>
<path d="M2240 4020 c0 -108 3 -130 15 -130 11 0 15 20 17 102 l3 101 68 -101
c37 -56 74 -102 82 -102 13 0 15 21 15 130 0 109 -2 130 -15 130 -12 0 -15
-18 -15 -102 l0 -103 -68 102 c-93 143 -102 140 -102 -27z"/>
<path d="M1372 4085 c-66 -29 -78 -139 -19 -180 34 -24 103 -20 132 9 83 84
-6 219 -113 171z m71 -26 c30 -16 37 -28 37 -68 0 -43 -24 -71 -63 -71 -43 0
-67 25 -67 71 0 29 6 42 26 58 31 24 37 25 67 10z"/>
<path d="M1620 4093 c-75 -27 -91 -143 -26 -188 28 -20 85 -19 108 2 17 15 18
14 18 -19 0 -63 -67 -91 -111 -47 -11 11 -28 19 -37 17 -30 -6 40 -68 77 -68
88 0 111 41 111 195 0 98 -1 105 -20 105 -11 0 -20 -4 -20 -9 0 -6 -16 -3 -35
5 -37 15 -42 16 -65 7z m74 -44 c50 -40 25 -129 -36 -129 -43 0 -68 25 -68 69
0 41 6 53 35 69 28 16 39 15 69 -9z"/>
<path d="M1968 4086 c-16 -8 -28 -11 -28 -5 0 5 -7 9 -15 9 -12 0 -15 -18 -15
-100 0 -82 3 -100 15 -100 12 0 15 14 15 70 0 75 19 110 59 110 38 0 51 -27
51 -106 0 -69 2 -74 21 -74 20 0 21 4 17 80 -2 63 -7 84 -23 99 -28 28 -65 34
-97 17z"/>
<path d="M2563 4093 c-37 -7 -73 -59 -73 -105 0 -30 7 -46 29 -69 64 -64 171
-20 171 71 0 50 -22 85 -62 99 -17 6 -34 10 -37 10 -3 -1 -16 -4 -28 -6z m72
-48 c47 -46 20 -125 -42 -125 -34 0 -46 8 -62 38 -24 46 12 112 62 112 10 0
29 -11 42 -25z"/>
<path d="M1810 3990 c0 -93 1 -100 20 -100 19 0 20 7 20 100 0 93 -1 100 -20
100 -19 0 -20 -7 -20 -100z"/>
<path d="M2720 4083 c0 -5 13 -48 28 -98 23 -72 32 -90 47 -90 15 0 24 15 40
67 11 37 23 69 26 72 3 4 16 -28 28 -69 16 -58 26 -75 40 -75 14 0 24 22 48
100 27 89 29 100 13 100 -13 0 -21 -18 -35 -75 -11 -41 -22 -75 -25 -75 -4 0
-16 33 -27 73 -15 57 -24 73 -40 75 -17 3 -22 -7 -38 -65 -24 -91 -31 -102
-39 -67 -23 93 -39 134 -52 134 -8 0 -14 -3 -14 -7z"/>
<path d="M2627 3653 c-14 -13 -6 -33 13 -33 13 0 20 7 20 20 0 19 -20 27 -33
13z"/>
<path d="M2845 3650 c-4 -7 -3 -16 3 -22 14 -14 45 -2 40 15 -6 16 -34 21 -43
7z"/>
<path d="M770 3625 c0 -10 11 -15 35 -15 l35 0 0 -115 c0 -96 3 -115 15 -115
12 0 15 19 15 115 l0 115 35 0 c24 0 35 5 35 15 0 12 -16 15 -85 15 -69 0 -85
-3 -85 -15z"/>
<path d="M2030 3510 l0 -130 70 0 c56 0 70 3 70 15 0 12 -13 15 -56 15 l-55 0
3 43 3 42 48 3 c26 2 47 7 47 12 0 5 -21 10 -47 12 l-48 3 -3 43 -3 42 55 0
c43 0 56 3 56 15 0 12 -14 15 -70 15 l-70 0 0 -130z"/>
<path d="M1810 3610 c0 -10 -8 -24 -17 -30 -17 -10 -17 -10 0 -20 14 -9 17
-25 17 -83 0 -80 9 -97 52 -97 34 0 39 27 6 32 -21 3 -23 9 -26 76 -3 71 -3
72 23 72 14 0 25 5 25 10 0 6 -11 10 -25 10 -20 0 -25 5 -25 25 0 16 -6 25
-15 25 -8 0 -15 -9 -15 -20z"/>
<path d="M2720 3605 c0 -16 -6 -25 -15 -25 -8 0 -15 -4 -15 -10 0 -5 7 -10 15
-10 12 0 15 -15 15 -74 0 -54 4 -79 16 -90 20 -21 74 -21 74 -1 0 9 -9 15 -25
15 -29 0 -38 24 -33 96 3 45 5 49 31 52 15 2 27 7 27 12 0 5 -12 10 -27 12
-20 2 -29 9 -31 26 -5 31 -32 29 -32 -3z"/>
<path d="M1043 3583 c-37 -7 -73 -59 -73 -105 0 -30 7 -46 29 -69 64 -64 171
-20 171 71 0 50 -22 85 -62 99 -17 6 -34 10 -37 10 -3 -1 -16 -4 -28 -6z m72
-48 c47 -46 20 -125 -42 -125 -34 0 -46 8 -62 38 -24 46 12 112 62 112 10 0
29 -11 42 -25z"/>
<path d="M1363 3576 c-38 -17 -53 -43 -53 -91 0 -40 14 -73 39 -92 23 -17 82
-16 109 3 21 15 22 14 22 -15 0 -39 -31 -71 -68 -71 -16 0 -37 9 -47 20 -19
20 -45 27 -45 11 0 -26 39 -53 82 -58 42 -5 50 -3 78 25 l30 30 0 121 c0 101
-2 121 -15 121 -8 0 -15 -7 -15 -17 0 -15 -2 -15 -17 0 -27 23 -64 28 -100 13z
m72 -26 c69 -26 48 -140 -26 -140 -64 0 -92 78 -44 125 27 28 33 29 70 15z"/>
<path d="M1613 3575 c-39 -17 -53 -42 -53 -94 0 -28 8 -48 26 -70 22 -26 33
-31 70 -31 36 0 51 6 72 27 24 24 25 28 9 31 -10 2 -26 -3 -36 -12 -26 -24
-77 -20 -95 6 -9 12 -16 26 -16 30 0 5 36 8 80 8 79 0 80 0 80 26 0 38 -18 64
-55 80 -41 17 -42 17 -82 -1z m95 -42 c21 -29 14 -33 -53 -33 -36 0 -65 4 -65
9 0 5 12 19 27 31 30 24 69 20 91 -7z"/>
<path d="M2443 3575 c-40 -17 -53 -42 -53 -98 0 -61 35 -97 94 -97 44 0 86 27
86 55 0 21 -14 19 -35 -5 -25 -28 -79 -27 -99 2 -23 33 -20 75 9 103 29 30 56
32 80 5 10 -11 27 -20 37 -20 30 0 4 39 -37 56 -41 17 -42 17 -82 -1z"/>
<path d="M3003 3575 c-18 -8 -33 -10 -33 -5 0 6 -7 10 -15 10 -12 0 -15 -18
-15 -100 0 -79 3 -100 14 -100 10 0 15 19 18 71 3 60 8 74 27 90 30 24 46 24
71 -1 16 -16 20 -33 20 -90 0 -56 3 -70 15 -70 12 0 15 15 15 74 0 90 -4 103
-41 121 -34 18 -35 18 -76 0z"/>
<path d="M3223 3576 c-38 -17 -53 -43 -53 -91 0 -40 14 -73 39 -92 23 -17 82
-16 109 3 21 15 22 14 22 -15 0 -39 -31 -71 -68 -71 -16 0 -37 9 -47 20 -19
20 -45 27 -45 11 0 -26 39 -53 82 -58 42 -5 50 -3 78 25 l30 30 0 121 c0 101
-2 121 -15 121 -8 0 -15 -7 -15 -17 0 -15 -2 -15 -17 0 -27 23 -64 28 -100 13z
m72 -26 c69 -26 48 -140 -26 -140 -64 0 -92 78 -44 125 27 28 33 29 70 15z"/>
<path d="M2231 3530 c34 -55 36 -43 -17 -125 -15 -24 -15 -25 3 -25 11 0 26
14 37 35 11 19 22 35 25 35 4 0 15 -16 25 -35 11 -21 27 -35 38 -35 24 0 23 4
-13 56 -34 49 -35 38 17 119 15 24 15 25 -2 25 -11 0 -28 -15 -40 -36 l-21
-37 -22 37 c-13 21 -31 36 -42 36 -17 0 -16 -5 12 -50z"/>
<path d="M2620 3480 c0 -93 1 -100 20 -100 19 0 20 7 20 100 0 93 -1 100 -20
100 -19 0 -20 -7 -20 -100z"/>
<path d="M2850 3480 c0 -82 3 -100 15 -100 12 0 15 18 15 100 0 82 -3 100 -15
100 -12 0 -15 -18 -15 -100z"/>
<path d="M1878 3149 c-10 -5 -18 -18 -18 -29 0 -10 -8 -26 -17 -36 -13 -13
-14 -19 -5 -22 8 -2 12 -31 12 -93 0 -82 1 -89 20 -89 19 0 20 7 20 90 0 83 1
90 20 90 11 0 20 5 20 10 0 6 -9 10 -20 10 -13 0 -20 7 -20 20 0 10 9 24 20
30 11 6 20 15 20 20 0 13 -30 12 -52 -1z"/>
<path d="M1998 3149 c-10 -5 -18 -18 -18 -29 0 -10 -8 -26 -17 -36 -13 -13
-14 -19 -5 -22 8 -2 12 -31 12 -93 0 -82 1 -89 20 -89 19 0 20 7 20 90 0 83 1
90 20 90 11 0 20 5 20 10 0 6 -9 10 -20 10 -13 0 -20 7 -20 20 0 10 9 24 20
30 11 6 20 15 20 20 0 13 -30 12 -52 -1z"/>
<path d="M1609 3126 c-81 -46 -87 -172 -10 -223 62 -42 148 -24 185 37 9 16
16 49 16 74 0 38 -6 52 -33 82 -28 31 -41 37 -83 40 -31 3 -58 -1 -75 -10z
m117 -31 c51 -35 55 -127 7 -165 -29 -22 -89 -26 -114 -7 -25 19 -39 52 -39
92 0 73 88 121 146 80z"/>
<path d="M2135 3076 c-35 -15 -55 -52 -55 -102 0 -83 109 -126 168 -67 23 24
25 28 10 31 -10 2 -25 -4 -34 -12 -24 -24 -80 -20 -98 6 -9 12 -16 26 -16 30
0 5 39 8 86 8 l86 0 -7 33 c-14 65 -80 100 -140 73z m85 -36 c33 -33 24 -40
-45 -40 -62 0 -65 1 -55 20 22 42 69 51 100 20z"/>
<path d="M2385 3074 c-19 -10 -31 -11 -33 -5 -2 6 -10 11 -18 11 -11 0 -14
-20 -14 -100 0 -82 3 -100 15 -100 12 0 15 13 15 58 0 67 17 106 48 110 14 2
22 10 22 23 0 23 2 23 -35 3z"/>
<path d="M2495 3081 c-32 -14 -48 -38 -41 -65 4 -18 19 -30 59 -44 37 -14 52
-25 52 -38 0 -25 -56 -32 -75 -10 -16 20 -40 21 -40 2 0 -40 102 -62 134 -30
20 19 21 58 2 73 -7 6 -31 17 -52 24 -45 16 -59 51 -25 62 22 7 61 -10 61 -25
0 -6 7 -10 15 -10 20 0 19 23 -2 43 -23 20 -63 28 -88 18z"/>
</g>
</svg>
